<svg width="47" height="47" viewBox="0 0 47 47" fill="none" xmlns="http://www.w3.org/2000/svg">
<path d="M32.0446 36.3183H34.1809V34.1819H36.3173V32.0455H34.1809V29.9092H32.0446V27.7728H29.9082V25.6365H27.7718V21.3637H29.9082V19.2274H32.0446V17.091H34.1809V14.9546H36.3173V12.8183H34.1809V10.6819H32.0446V12.8183H29.9082V14.9546H27.7718V17.091H25.6355V19.2274H21.3627V17.091H19.2264V14.9546H17.09V12.8183H14.9537V10.6819H12.8173V12.8183H10.6809V14.9546H12.8173V17.091H14.9537V19.2274H17.09V21.3637H19.2264V25.6365H17.09V27.7728H14.9537V29.9092H12.8173V32.0455H10.6809V34.1819H12.8173V36.3183H14.9537V34.1819H17.09V32.0455H19.2264V29.9092H21.3627V27.7728H25.6355V29.9092H27.7718V32.0455H29.9082V34.1819H32.0446M36.3173 40.591H29.9082V38.4546H27.7718V36.3183H25.6355V34.1819H21.3627V36.3183H19.2264V38.4546H17.09V40.591H10.6809V38.4546H8.54457V36.3183H6.4082V29.9092H8.54457V27.7728H10.6809V25.6365H12.8173V21.3637H10.6809V19.2274H8.54457V17.091H6.4082V10.6819H8.54457V8.54554H10.6809V6.40918H17.09V8.54554H19.2264V10.6819H21.3627V12.8183H25.6355V10.6819H27.7718V8.54554H29.9082V6.40918H36.3173V8.54554H38.4537V10.6819H40.59V17.091H38.4537V19.2274H36.3173V21.3637H34.1809V25.6365H36.3173V27.7728H38.4537V29.9092H40.59V36.3183H38.4537V38.4546H36.3173V40.591Z" fill="white"/>
</svg>
